<mxfile host="app.diagrams.net" agent="Mozilla/5.0 (Windows NT 10.0; Win64; x64) AppleWebKit/537.36 (KHTML, like Gecko) Chrome/138.0.0.0 Safari/537.36" version="28.0.6">
  <diagram name="Page-1" id="LVUewoOSiP5x6OEFWZ2Q">
    <mxGraphModel dx="1426" dy="1877" grid="1" gridSize="10" guides="1" tooltips="1" connect="1" arrows="1" fold="1" page="1" pageScale="1" pageWidth="850" pageHeight="1100" math="0" shadow="0">
      <root>
        <mxCell id="0" />
        <mxCell id="1" parent="0" />
        <mxCell id="PGbsJtd_KX8pkaPK6Ff_-21" value="1" style="html=1;whiteSpace=wrap;fillColor=#10739E;strokeColor=none;shadow=0;fontSize=17;fontColor=#FFFFFF;align=center;fontStyle=1;rounded=0;" vertex="1" parent="1">
          <mxGeometry x="110" y="210" width="70" height="70" as="geometry" />
        </mxCell>
        <mxCell id="PGbsJtd_KX8pkaPK6Ff_-22" value="ACTIVITY DIAGRAM" style="shape=mxgraph.infographic.ribbonSimple;notch1=0;notch2=10;notch=0;html=1;whiteSpace=wrap;fillColor=#64BBE2;strokeColor=none;shadow=0;fontSize=17;fontColor=#FFFFFF;align=left;spacingLeft=10;fontStyle=1;" vertex="1" parent="1">
          <mxGeometry x="190" y="210" width="280" height="70" as="geometry" />
        </mxCell>
        <mxCell id="PGbsJtd_KX8pkaPK6Ff_-23" value="2" style="html=1;whiteSpace=wrap;fillColor=#F2931E;strokeColor=none;shadow=0;fontSize=17;fontColor=#FFFFFF;align=center;fontStyle=1;rounded=0;" vertex="1" parent="1">
          <mxGeometry x="110" y="295" width="65" height="60" as="geometry" />
        </mxCell>
        <mxCell id="PGbsJtd_KX8pkaPK6Ff_-24" value="INTERMIDIATE DIAGRAM" style="shape=mxgraph.infographic.ribbonSimple;notch1=0;notch2=10;notch=0;html=1;whiteSpace=wrap;fillColor=#F8C382;strokeColor=none;shadow=0;fontSize=17;fontColor=#FFFFFF;align=left;spacingLeft=10;fontStyle=1;" vertex="1" parent="1">
          <mxGeometry x="190" y="290" width="250" height="70" as="geometry" />
        </mxCell>
        <mxCell id="PGbsJtd_KX8pkaPK6Ff_-25" value="3" style="html=1;whiteSpace=wrap;fillColor=#AE4132;strokeColor=none;shadow=0;fontSize=17;fontColor=#FFFFFF;align=center;fontStyle=1;rounded=0;" vertex="1" parent="1">
          <mxGeometry x="110" y="370" width="70" height="70" as="geometry" />
        </mxCell>
        <mxCell id="PGbsJtd_KX8pkaPK6Ff_-26" value="STATE MACHINE DIAGRAM" style="shape=mxgraph.infographic.ribbonSimple;notch1=0;notch2=10;notch=0;html=1;whiteSpace=wrap;fillColor=#F08E81;strokeColor=none;shadow=0;fontSize=17;fontColor=#FFFFFF;align=left;spacingLeft=10;fontStyle=1;" vertex="1" parent="1">
          <mxGeometry x="190" y="370" width="225" height="70" as="geometry" />
        </mxCell>
        <mxCell id="PGbsJtd_KX8pkaPK6Ff_-27" value="4" style="html=1;whiteSpace=wrap;fillColor=#23445D;strokeColor=none;shadow=0;fontSize=17;fontColor=#FFFFFF;align=center;fontStyle=1;rounded=0;" vertex="1" parent="1">
          <mxGeometry x="112.5" y="450" width="70" height="60" as="geometry" />
        </mxCell>
        <mxCell id="PGbsJtd_KX8pkaPK6Ff_-28" value="USE CASE DIAGRAM" style="shape=mxgraph.infographic.ribbonSimple;notch1=0;notch2=10;notch=0;html=1;whiteSpace=wrap;fillColor=#5D7F99;strokeColor=none;shadow=0;fontSize=17;fontColor=#FFFFFF;align=left;spacingLeft=10;fontStyle=1;" vertex="1" parent="1">
          <mxGeometry x="190" y="450" width="205" height="60" as="geometry" />
        </mxCell>
        <mxCell id="PGbsJtd_KX8pkaPK6Ff_-33" value="&lt;font style=&quot;font-size: 36px;&quot;&gt;BEHAVIOR DIAGRAM&lt;/font&gt;" style="rounded=0;whiteSpace=wrap;html=1;" vertex="1" parent="1">
          <mxGeometry x="395" y="20" width="335" height="100" as="geometry" />
        </mxCell>
        <mxCell id="PGbsJtd_KX8pkaPK6Ff_-34" value="" style="endArrow=none;html=1;rounded=0;" edge="1" parent="1">
          <mxGeometry width="50" height="50" relative="1" as="geometry">
            <mxPoint x="60" y="60" as="sourcePoint" />
            <mxPoint x="395" y="60" as="targetPoint" />
          </mxGeometry>
        </mxCell>
        <mxCell id="PGbsJtd_KX8pkaPK6Ff_-35" value="" style="endArrow=none;html=1;rounded=0;" edge="1" parent="1">
          <mxGeometry width="50" height="50" relative="1" as="geometry">
            <mxPoint x="60" y="500" as="sourcePoint" />
            <mxPoint x="60" y="60" as="targetPoint" />
            <Array as="points">
              <mxPoint x="60" y="490" />
            </Array>
          </mxGeometry>
        </mxCell>
        <mxCell id="PGbsJtd_KX8pkaPK6Ff_-36" value="" style="endArrow=classic;html=1;rounded=0;" edge="1" parent="1" target="PGbsJtd_KX8pkaPK6Ff_-21">
          <mxGeometry width="50" height="50" relative="1" as="geometry">
            <mxPoint x="60" y="250" as="sourcePoint" />
            <mxPoint x="110" y="220" as="targetPoint" />
          </mxGeometry>
        </mxCell>
        <mxCell id="PGbsJtd_KX8pkaPK6Ff_-37" value="" style="endArrow=classic;html=1;rounded=0;entryX=0;entryY=0.75;entryDx=0;entryDy=0;" edge="1" parent="1" target="PGbsJtd_KX8pkaPK6Ff_-23">
          <mxGeometry width="50" height="50" relative="1" as="geometry">
            <mxPoint x="60" y="340" as="sourcePoint" />
            <mxPoint x="110" y="295" as="targetPoint" />
          </mxGeometry>
        </mxCell>
        <mxCell id="PGbsJtd_KX8pkaPK6Ff_-38" value="" style="endArrow=classic;html=1;rounded=0;entryX=-0.014;entryY=0.6;entryDx=0;entryDy=0;entryPerimeter=0;" edge="1" parent="1" target="PGbsJtd_KX8pkaPK6Ff_-25">
          <mxGeometry width="50" height="50" relative="1" as="geometry">
            <mxPoint x="60" y="410" as="sourcePoint" />
            <mxPoint x="110" y="360" as="targetPoint" />
          </mxGeometry>
        </mxCell>
        <mxCell id="PGbsJtd_KX8pkaPK6Ff_-41" value="" style="endArrow=classic;html=1;rounded=0;" edge="1" parent="1">
          <mxGeometry width="50" height="50" relative="1" as="geometry">
            <mxPoint x="60" y="500" as="sourcePoint" />
            <mxPoint x="110" y="500" as="targetPoint" />
          </mxGeometry>
        </mxCell>
        <mxCell id="PGbsJtd_KX8pkaPK6Ff_-43" value="" style="endArrow=none;html=1;rounded=0;" edge="1" parent="1">
          <mxGeometry width="50" height="50" relative="1" as="geometry">
            <mxPoint x="60" y="580" as="sourcePoint" />
            <mxPoint x="60" y="560" as="targetPoint" />
          </mxGeometry>
        </mxCell>
        <mxCell id="PGbsJtd_KX8pkaPK6Ff_-44" value="&lt;font style=&quot;font-size: 36px;&quot;&gt;UML DIAGRAM&lt;/font&gt;" style="rounded=0;whiteSpace=wrap;html=1;" vertex="1" parent="1">
          <mxGeometry x="630" y="-170" width="340" height="130" as="geometry" />
        </mxCell>
        <mxCell id="PGbsJtd_KX8pkaPK6Ff_-45" value="" style="endArrow=classic;html=1;rounded=0;entryX=0.842;entryY=-0.01;entryDx=0;entryDy=0;entryPerimeter=0;" edge="1" parent="1" target="PGbsJtd_KX8pkaPK6Ff_-33">
          <mxGeometry width="50" height="50" relative="1" as="geometry">
            <mxPoint x="840" y="-40" as="sourcePoint" />
            <mxPoint x="840" y="30" as="targetPoint" />
          </mxGeometry>
        </mxCell>
        <mxCell id="PGbsJtd_KX8pkaPK6Ff_-46" value="&lt;font style=&quot;font-size: 36px;&quot;&gt;STRUCTURE DIAGRAM&lt;/font&gt;" style="rounded=0;whiteSpace=wrap;html=1;" vertex="1" parent="1">
          <mxGeometry x="930" y="20" width="340" height="100" as="geometry" />
        </mxCell>
        <mxCell id="PGbsJtd_KX8pkaPK6Ff_-47" value="" style="endArrow=classic;html=1;rounded=0;entryX=0.318;entryY=0;entryDx=0;entryDy=0;entryPerimeter=0;" edge="1" parent="1" target="PGbsJtd_KX8pkaPK6Ff_-46">
          <mxGeometry width="50" height="50" relative="1" as="geometry">
            <mxPoint x="880" y="-40" as="sourcePoint" />
            <mxPoint x="930" y="-90" as="targetPoint" />
            <Array as="points" />
          </mxGeometry>
        </mxCell>
        <mxCell id="PGbsJtd_KX8pkaPK6Ff_-48" value="" style="endArrow=none;html=1;rounded=0;" edge="1" parent="1">
          <mxGeometry width="50" height="50" relative="1" as="geometry">
            <mxPoint x="860" y="45" as="sourcePoint" />
            <mxPoint x="930" y="45" as="targetPoint" />
          </mxGeometry>
        </mxCell>
        <mxCell id="PGbsJtd_KX8pkaPK6Ff_-49" value="" style="endArrow=none;html=1;rounded=0;" edge="1" parent="1">
          <mxGeometry width="50" height="50" relative="1" as="geometry">
            <mxPoint x="870" y="390" as="sourcePoint" />
            <mxPoint x="860" y="40" as="targetPoint" />
          </mxGeometry>
        </mxCell>
        <mxCell id="PGbsJtd_KX8pkaPK6Ff_-71" value="1" style="html=1;whiteSpace=wrap;fillColor=#10739E;strokeColor=none;shadow=0;fontSize=17;fontColor=#FFFFFF;align=center;fontStyle=1;rounded=0;" vertex="1" parent="1">
          <mxGeometry x="930" y="160" width="60" height="50" as="geometry" />
        </mxCell>
        <mxCell id="PGbsJtd_KX8pkaPK6Ff_-72" value="CLASS DIAGRAM" style="shape=mxgraph.infographic.ribbonSimple;notch1=0;notch2=10;notch=0;html=1;whiteSpace=wrap;fillColor=#64BBE2;strokeColor=none;shadow=0;fontSize=17;fontColor=#FFFFFF;align=left;spacingLeft=10;fontStyle=1;" vertex="1" parent="1">
          <mxGeometry x="1005" y="160" width="195" height="50" as="geometry" />
        </mxCell>
        <mxCell id="PGbsJtd_KX8pkaPK6Ff_-73" value="2" style="html=1;whiteSpace=wrap;fillColor=#F2931E;strokeColor=none;shadow=0;fontSize=17;fontColor=#FFFFFF;align=center;fontStyle=1;rounded=0;" vertex="1" parent="1">
          <mxGeometry x="930" y="220" width="60" height="50" as="geometry" />
        </mxCell>
        <mxCell id="PGbsJtd_KX8pkaPK6Ff_-74" value="DEPLOYMENT DIAGRAM" style="shape=mxgraph.infographic.ribbonSimple;notch1=0;notch2=10;notch=0;html=1;whiteSpace=wrap;fillColor=#F8C382;strokeColor=none;shadow=0;fontSize=17;fontColor=#FFFFFF;align=left;spacingLeft=10;fontStyle=1;" vertex="1" parent="1">
          <mxGeometry x="1005" y="217.5" width="235" height="55" as="geometry" />
        </mxCell>
        <mxCell id="PGbsJtd_KX8pkaPK6Ff_-75" value="3" style="html=1;whiteSpace=wrap;fillColor=#AE4132;strokeColor=none;shadow=0;fontSize=17;fontColor=#FFFFFF;align=center;fontStyle=1;rounded=0;" vertex="1" parent="1">
          <mxGeometry x="930" y="280" width="60" height="60" as="geometry" />
        </mxCell>
        <mxCell id="PGbsJtd_KX8pkaPK6Ff_-76" value="COMPONENT DIAGRAM" style="shape=mxgraph.infographic.ribbonSimple;notch1=0;notch2=10;notch=0;html=1;whiteSpace=wrap;fillColor=#F08E81;strokeColor=none;shadow=0;fontSize=17;fontColor=#FFFFFF;align=left;spacingLeft=10;fontStyle=1;" vertex="1" parent="1">
          <mxGeometry x="1005" y="280" width="265" height="60" as="geometry" />
        </mxCell>
        <mxCell id="PGbsJtd_KX8pkaPK6Ff_-77" value="4" style="html=1;whiteSpace=wrap;fillColor=#23445D;strokeColor=none;shadow=0;fontSize=17;fontColor=#FFFFFF;align=center;fontStyle=1;rounded=0;" vertex="1" parent="1">
          <mxGeometry x="930" y="350" width="60" height="65" as="geometry" />
        </mxCell>
        <mxCell id="PGbsJtd_KX8pkaPK6Ff_-78" value="OBJECT DIAGRAM" style="shape=mxgraph.infographic.ribbonSimple;notch1=0;notch2=10;notch=0;html=1;whiteSpace=wrap;fillColor=#5D7F99;strokeColor=none;shadow=0;fontSize=17;fontColor=#FFFFFF;align=left;spacingLeft=10;fontStyle=1;" vertex="1" parent="1">
          <mxGeometry x="1005" y="350" width="315" height="65" as="geometry" />
        </mxCell>
        <mxCell id="PGbsJtd_KX8pkaPK6Ff_-85" value="" style="endArrow=classic;html=1;rounded=0;entryX=0;entryY=0.75;entryDx=0;entryDy=0;" edge="1" parent="1" target="PGbsJtd_KX8pkaPK6Ff_-71">
          <mxGeometry width="50" height="50" relative="1" as="geometry">
            <mxPoint x="870" y="200" as="sourcePoint" />
            <mxPoint x="920" y="190" as="targetPoint" />
          </mxGeometry>
        </mxCell>
        <mxCell id="PGbsJtd_KX8pkaPK6Ff_-86" value="" style="endArrow=classic;html=1;rounded=0;entryX=0;entryY=1;entryDx=0;entryDy=0;" edge="1" parent="1">
          <mxGeometry width="50" height="50" relative="1" as="geometry">
            <mxPoint x="870" y="243" as="sourcePoint" />
            <mxPoint x="930" y="240" as="targetPoint" />
          </mxGeometry>
        </mxCell>
        <mxCell id="PGbsJtd_KX8pkaPK6Ff_-87" value="" style="endArrow=classic;html=1;rounded=0;entryX=0;entryY=0.5;entryDx=0;entryDy=0;" edge="1" parent="1" target="PGbsJtd_KX8pkaPK6Ff_-75">
          <mxGeometry width="50" height="50" relative="1" as="geometry">
            <mxPoint x="870" y="310" as="sourcePoint" />
            <mxPoint x="920" y="309.5" as="targetPoint" />
          </mxGeometry>
        </mxCell>
        <mxCell id="PGbsJtd_KX8pkaPK6Ff_-88" value="" style="endArrow=classic;html=1;rounded=0;entryX=-0.017;entryY=0.631;entryDx=0;entryDy=0;entryPerimeter=0;" edge="1" parent="1" target="PGbsJtd_KX8pkaPK6Ff_-77">
          <mxGeometry width="50" height="50" relative="1" as="geometry">
            <mxPoint x="870" y="391" as="sourcePoint" />
            <mxPoint x="900" y="360" as="targetPoint" />
          </mxGeometry>
        </mxCell>
        <mxCell id="PGbsJtd_KX8pkaPK6Ff_-89" value="&lt;font style=&quot;font-size: 25px;&quot;&gt;DYNAMIC&amp;nbsp;&lt;/font&gt;" style="ellipse;whiteSpace=wrap;html=1;" vertex="1" parent="1">
          <mxGeometry x="170" y="-130" width="195" height="130" as="geometry" />
        </mxCell>
        <mxCell id="PGbsJtd_KX8pkaPK6Ff_-90" value="&lt;font style=&quot;font-size: 25px;&quot;&gt;STATIC&lt;/font&gt;" style="ellipse;whiteSpace=wrap;html=1;" vertex="1" parent="1">
          <mxGeometry x="1082.5" y="-135" width="110" height="80" as="geometry" />
        </mxCell>
      </root>
    </mxGraphModel>
  </diagram>
</mxfile>
